<?xml version="1.0" standalone="no"?>
<!DOCTYPE svg PUBLIC "-//W3C//DTD SVG 20010904//EN"
 "http://www.w3.org/TR/2001/REC-SVG-20010904/DTD/svg10.dtd">
<svg version="1.0" xmlns="http://www.w3.org/2000/svg"
 width="612.000000pt" height="612.000000pt" viewBox="0 0 612.000000 612.000000"
 preserveAspectRatio="xMidYMid meet">
<metadata>
Created by potrace 1.11, written by Peter Selinger 2001-2013
</metadata>
<g transform="translate(0.000000,612.000000) scale(0.100000,-0.100000)"
fill="#000000" stroke="none">
<path d="M1645 4242 c-41 -8 -221 -102 -256 -134 -45 -42 -101 -113 -120 -155
-10 -21 -15 -55 -13 -95 3 -59 6 -83 18 -148 2 -14 7 -47 10 -75 3 -27 10 -65
15 -82 8 -27 7 -33 -5 -33 -8 0 -19 -12 -25 -27 -9 -23 -6 -43 15 -105 14 -43
26 -84 26 -92 0 -20 32 -86 42 -87 4 -1 14 -2 21 -3 6 -1 20 1 29 6 15 7 23
-3 49 -59 42 -93 47 -149 19 -210 -74 -159 -61 -145 -178 -199 -58 -27 -152
-77 -209 -111 -57 -35 -106 -63 -108 -63 -3 0 -35 -18 -72 -41 -87 -53 -159
-122 -184 -178 -38 -86 -68 -231 -84 -401 -3 -36 -8 -78 -10 -95 -24 -188 -24
-544 0 -607 4 -9 8 -60 10 -114 2 -55 3 -102 4 -106 1 -12 2561 -10 2561 1 0
11 -49 130 -60 146 -4 6 -5 26 -2 45 14 103 6 311 -18 450 -5 30 -11 73 -14
95 -3 22 -14 86 -25 143 -12 56 -23 116 -26 133 -22 121 -116 462 -142 514
-25 48 -120 131 -188 164 -64 30 -181 67 -400 125 -116 31 -122 34 -172 85
-29 29 -53 61 -54 70 0 9 -2 38 -4 66 -1 27 4 67 11 89 8 22 17 53 20 69 7 42
13 49 31 38 38 -21 77 27 88 109 2 19 8 55 13 80 11 56 -2 105 -31 125 -22 14
-23 21 -21 109 2 110 -10 191 -34 226 -10 14 -23 37 -30 53 -29 65 -36 78 -54
96 -10 11 -18 24 -18 28 0 14 -130 95 -191 120 -31 13 -76 25 -100 28 -24 3
-45 8 -47 10 -2 2 -16 -1 -30 -6 -14 -5 -28 -6 -31 -1 -3 4 -15 6 -26 4z"/>
</g>
</svg>
